<?xml version="1.0" encoding="UTF-8"?><svg id="Layer_2" xmlns="http://www.w3.org/2000/svg" viewBox="0 0 86.52 90.1"><defs><style>.cls-1{fill:#d54309;}</style></defs><g id="Layer_1-2"><g><path class="cls-1" d="m19.96,57.13c-.67,0-1.27-.34-1.62-.92L2.35,29.37C.64,26.16-.16,22.53.03,18.88.55,8.86,8.5.76,18.5.05c.49-.04.99-.05,1.48-.05,5.05,0,9.88,1.9,13.58,5.36,4.04,3.76,6.36,9.09,6.36,14.61,0,3.26-.8,6.5-2.33,9.36l-.96,1.62-15.06,25.28c-.34.58-.95.92-1.62.92Zm.02-54.75c-.43,0-.87.02-1.31.05C9.87,3.06,2.88,10.19,2.41,19.01c-.17,3.21.53,6.39,2.02,9.18l.89,1.49,14.64,24.58,15.56-26.12c1.32-2.48,2.02-5.31,2.02-8.18,0-4.86-2.04-9.54-5.6-12.86-3.26-3.04-7.51-4.71-11.95-4.71Zm-1.4-.85h0v-.58.58Zm1.36,30.08c-6.42,0-11.64-5.23-11.64-11.65s5.22-11.64,11.64-11.64,11.65,5.22,11.65,11.64-5.23,11.65-11.65,11.65Zm0-20.9c-5.1,0-9.26,4.15-9.26,9.26s4.15,9.26,9.26,9.26,9.26-4.15,9.26-9.26-4.15-9.26-9.26-9.26Z"/><path class="cls-1" d="m55.47,78.36c-.59,0-1.13-.3-1.43-.81l-10.92-18.33c-1.21-2.26-1.78-4.81-1.64-7.37.37-7.04,5.94-12.72,12.97-13.22.34-.02.68-.04,1.02-.04,3.56,0,6.95,1.33,9.55,3.76,2.84,2.64,4.46,6.38,4.46,10.25,0,2.29-.56,4.56-1.63,6.57l-.66,1.12-10.29,17.26c-.3.51-.84.81-1.43.81h0Zm.02-37.38c-.29,0-.58.01-.87.03-5.82.41-10.45,5.12-10.75,10.96-.11,2.12.35,4.23,1.34,6.07l.6,1,9.67,16.24,10.3-17.29c.87-1.63,1.33-3.5,1.33-5.4,0-3.21-1.35-6.31-3.7-8.5-2.16-2.01-4.97-3.12-7.9-3.12Zm-.02,19.95c-4.59,0-8.33-3.74-8.33-8.33s3.74-8.33,8.33-8.33,8.33,3.74,8.33,8.33-3.74,8.33-8.33,8.33Zm0-14.27c-3.28,0-5.94,2.67-5.94,5.94s2.67,5.94,5.94,5.94,5.94-2.67,5.94-5.94-2.67-5.94-5.94-5.94Z"/><g><path class="cls-1" d="m47.01,90.1c-21.79,0-39.51-17.73-39.51-39.51,0-1.06.04-2.14.13-3.19.05-.62.57-1.1,1.18-1.1.03,0,.07,0,.1,0,.32.03.61.17.81.42.21.24.31.55.28.87-.08.99-.12,2-.12,3,0,20.47,16.65,37.12,37.13,37.12s37.12-16.65,37.12-37.12S67.48,13.47,47.01,13.47c-1.47,0-2.95.09-4.4.26-.05,0-.1,0-.15,0-.59,0-1.11-.46-1.18-1.06-.04-.32.05-.63.25-.88.2-.25.48-.41.8-.45,1.55-.18,3.12-.27,4.68-.27,21.79,0,39.51,17.73,39.51,39.51s-17.73,39.51-39.51,39.51Z"/><path class="cls-1" d="m73.49,79.48c-.43,0-.83-.23-1.04-.61-.75-1.33-1.05-3.06-.79-4.61.25-1.53.85-2.9,1.44-4.24.41-.95.8-1.83,1.06-2.74.54-1.87.29-4.28-1.24-5.08-.29-.15-.72-.23-1.3-.23-.72,0-1.48.11-1.81.16-.06,0-.12.01-.18.01-.58,0-1.09-.44-1.18-1.02-.05-.32.03-.63.22-.89.19-.26.47-.42.78-.47.59-.09,1.37-.19,2.15-.19.99,0,1.78.16,2.42.49,2.81,1.47,3.23,5.1,2.43,7.86-.3,1.06-.74,2.06-1.16,3.03-.55,1.26-1.06,2.44-1.27,3.67-.17,1.02.03,2.19.51,3.05.16.28.2.6.11.91-.09.31-.29.56-.56.72-.18.1-.38.15-.59.15Z"/><path class="cls-1" d="m69,41.53c-.35,0-.69-.16-.92-.43-.21-.24-.3-.55-.28-.87.03-.32.18-.61.42-.81.21-.17.41-.36.63-.56.31-.29.67-.58,1.1-.94.52-.42,1.47-1.2,1.85-1.74l.24-.34-.4-.11c-.52-.14-1.02-.16-1.55-.17-1.23-.04-2.75-.08-3.87-2.06-.03-.05-.05-.1-.07-.15-.53-1.35-.26-2.91-.02-4.29v-.05c.07-.38.15-.85.19-1.22l.04-.47-.44.18c-1.68.68-2.1,4.66-2.41,7.57l-.06.54c-.07.61-.58,1.06-1.19,1.06-.04,0-.08,0-.12,0-.32-.03-.6-.19-.8-.44-.2-.25-.29-.56-.26-.88l.06-.54c.42-3.96,1-9.37,4.91-9.78.13-.01.25-.02.37-.02.89,0,1.41.36,1.69.66.87.93.63,2.32.37,3.8-.17.97-.37,2.17-.15,2.91v.03s.03.03.03.03c.42.7.79.71,1.78.74.88.03,2.08.06,3.41.78.2.11.36.26.47.46,1.27,2.22-.95,4.04-2.57,5.36l-.06.05c-.33.27-.65.53-.92.78-.24.22-.48.44-.73.64-.21.18-.49.28-.77.28Z"/><path class="cls-1" d="m41.44,44.69c-.32,0-.62-.13-.85-.36-1.62-1.65-2.21-4.7-1.94-6.73.07-.55.53-.99,1.08-1.03.15-.01.32-.02.5-.02.63,0,1.36.07,2.13.15.63.06,1.67.17,2.53.17.8,0,1.26-.09,1.49-.28l.04-.03.02-.04c.24-.39-.03-1.38-.6-3.09-.6-1.79-1.28-3.81-.24-5.27.22-.32.59-.5.98-.5.13,0,.26.02.38.06.4.13.81.2,1.24.2,1.85,0,3.49-1.25,4.33-2.32.42-.53.72-1,.91-1.39l.23-.49-.54.09c-.31.05-.73.18-.94.36l-.05.04-.03.06c-.49,1.01-1.61,1.84-2.99,2.22-.5.14-1,.21-1.47.21-.81,0-1.53-.2-2.09-.59-.23-.16-.4-.4-.48-.67-1.69-6.27.88-11.19,7.25-13.84.15-.06.3-.09.46-.09.48,0,.92.29,1.1.74.25.61-.04,1.31-.64,1.56-5,2.08-7.03,5.54-6.04,10.27l.04.21.22.02c.06,0,.12,0,.18,0,.26,0,.54-.04.83-.12.7-.2,1.32-.6,1.49-.99.52-1.15,2.09-1.78,3.37-1.8h.06c1.12,0,1.96.45,2.36,1.26.82,1.67-.82,3.75-1.36,4.43-1.59,2.02-3.93,3.23-6.25,3.23-.11,0-.23,0-.34,0l-.37-.02.08.37c.14.67.42,1.51.59,2.02.61,1.82,1.24,3.7.33,5.15-.61.98-1.77,1.44-3.65,1.44-.87,0-1.78-.09-2.67-.18-.27-.03-.54-.06-.81-.08l-.35-.03.04.35c.11,1.1.51,2.56,1.28,3.34.46.47.46,1.23-.01,1.69-.22.22-.52.34-.84.34Z"/><path class="cls-1" d="m42.37,89.82c-.62,0-1.15-.49-1.19-1.11-.37-5.38-.73-10.76-1.09-16.16-.1-1.42-.2-2.89-.78-4.08-1.06-2.16-3.63-3.2-5.69-3.46-.57-.07-1.16-.11-1.8-.11-1.51,0-3.04.2-4.65.41l-.13.02c-.4.05-.81.1-1.21.15-.89.11-1.82.45-2.8.81-1.16.42-2.48.91-3.77.91-1.05,0-1.96-.32-2.76-.97-2.34-1.91-3.75-5.78-3.9-8.46-.01-.23-.04-.46-.06-.69v-.05c-.08-.74-.17-1.58.01-2.59.1-.57.59-.98,1.17-.98.07,0,.14,0,.22.02.31.06.59.23.77.49.18.26.25.58.2.89-.12.67-.06,1.25,0,1.92.03.29.06.57.07.86.12,2.16,1.36,5.39,3.02,6.74.36.29.78.44,1.28.44.71,0,1.57-.27,2.92-.76,1.07-.39,2.17-.8,3.34-.94.43-.05.85-.11,1.28-.16h.03c1.63-.21,3.3-.43,4.98-.43.74,0,1.42.04,2.09.12,3.47.44,6.28,2.23,7.54,4.78.79,1.61.91,3.4,1.02,4.97.36,5.4.72,10.78,1.09,16.16.02.32-.08.63-.29.87-.21.24-.5.38-.82.41-.03,0-.05,0-.08,0Z"/></g></g></g></svg>