<?xml version="1.0" encoding="UTF-8"?><svg id="Layer_2" xmlns="http://www.w3.org/2000/svg" viewBox="0 0 89.61 89.79"><defs><style>.cls-1{stroke:#d54309;stroke-miterlimit:10;stroke-width:2px;}.cls-1,.cls-2{fill:none;}</style></defs><g id="Layer_1-2"><g><g><rect class="cls-2" x="1" y="1" width="39.3" height="13.38"/><rect class="cls-2" x="1" y="14.38" width="39.3" height="13.39"/><rect class="cls-2" x="1" y="27.77" width="39.3" height="13.38"/><rect class="cls-2" x="49.32" y="75.4" width="39.3" height="13.39"/><rect class="cls-2" x="49.32" y="62.01" width="39.3" height="13.39"/><rect class="cls-2" x="49.32" y="48.64" width="39.3" height="13.38"/></g><line class="cls-1" x1="52.09" y1="17.33" x2="49.49" y2="17.33"/><line class="cls-1" x1="56.79" y1="17.33" x2="54.19" y2="17.33"/><line class="cls-1" x1="61.48" y1="17.33" x2="58.88" y2="17.33"/><polyline class="cls-1" points="49.49 10.26 65.82 10.26 69.33 10.26 71.99 10.26 71.99 31.75 75.43 31.75 75.43 32 68.91 41.86 62.4 32 62.4 31.75 65.82 31.75 65.82 17.33 63.3 17.33"/><line class="cls-1" x1="37.52" y1="72.45" x2="40.12" y2="72.45"/><line class="cls-1" x1="32.83" y1="72.45" x2="35.43" y2="72.45"/><line class="cls-1" x1="28.13" y1="72.45" x2="30.73" y2="72.45"/><polyline class="cls-1" points="40.12 79.52 23.79 79.52 20.28 79.52 17.62 79.52 17.62 58.03 14.2 58.03 14.2 57.78 20.7 47.92 27.21 57.78 27.21 58.03 23.79 58.03 23.79 72.45 26.31 72.45"/><polyline class="cls-1" points="1 14.38 1 1 40.3 1 40.3 14.38"/><polyline class="cls-1" points="1 27.77 1 14.38 40.3 14.38 40.3 27.77"/><rect class="cls-1" x="1" y="27.77" width="39.3" height="13.38"/><line class="cls-1" x1="14.51" y1="21.06" x2="17.2" y2="21.06"/><line class="cls-1" x1="19.31" y1="21.06" x2="22" y2="21.06"/><line class="cls-1" x1="24.11" y1="21.06" x2="26.8" y2="21.06"/><line class="cls-1" x1="14.51" y1="34.46" x2="17.2" y2="34.46"/><line class="cls-1" x1="19.31" y1="34.46" x2="22" y2="34.46"/><line class="cls-1" x1="24.11" y1="34.46" x2="26.8" y2="34.46"/><line class="cls-1" x1="14.25" y1="7.83" x2="17.06" y2="7.83"/><line class="cls-1" x1="19.25" y1="7.83" x2="22.06" y2="7.83"/><line class="cls-1" x1="24.25" y1="7.83" x2="27.06" y2="7.83"/><polyline class="cls-1" points="49.32 62.01 49.32 48.64 88.61 48.64 88.61 62.01"/><polyline class="cls-1" points="49.32 75.4 49.32 62.01 88.61 62.01 88.61 75.4"/><rect class="cls-1" x="49.32" y="75.4" width="39.3" height="13.39"/><line class="cls-1" x1="62.81" y1="68.71" x2="65.51" y2="68.71"/><line class="cls-1" x1="67.61" y1="68.71" x2="70.31" y2="68.71"/><line class="cls-1" x1="72.42" y1="68.71" x2="75.12" y2="68.71"/><line class="cls-1" x1="62.81" y1="82.09" x2="65.51" y2="82.09"/><line class="cls-1" x1="67.61" y1="82.09" x2="70.31" y2="82.09"/><line class="cls-1" x1="72.42" y1="82.09" x2="75.12" y2="82.09"/><line class="cls-1" x1="62.81" y1="55.32" x2="65.51" y2="55.32"/><line class="cls-1" x1="67.61" y1="55.32" x2="70.31" y2="55.32"/><line class="cls-1" x1="72.42" y1="55.32" x2="75.12" y2="55.32"/></g></g></svg>