<?xml version="1.0" encoding="UTF-8"?><svg id="Layer_1" xmlns="http://www.w3.org/2000/svg" viewBox="0 0 616.5 1014.69"><defs><style>.cls-1,.cls-2{fill:#0061c9;}.cls-3,.cls-4{fill:none;stroke:#dfe1e2;stroke-width:3px;}.cls-5{fill:#dfe1e2;}.cls-4{stroke-miterlimit:10;}.cls-6{fill:#646464;}.cls-7{fill:#d54309;}.cls-2{stroke:#0061c9;}</style></defs><path class="cls-4" d="m110.8,508.41c56.13,28.6,105.62,65.06,147.89,107.31l137.71-137.71c-56.36-56.34-122.39-104.91-197.23-143.04"/><path class="cls-4" d="m422.47,937.38l192.31-30.46c-25.56-160.52-100.97-311.56-218.37-428.91l-137.71,137.71c88.05,88.02,144.6,201.28,163.77,321.66Z"/><path class="cls-4" d="m321.82,874.03l158.76-51.58c-43.94-135.33-129.95-251.7-242.59-333.68l-98.1,135.02"/><path class="cls-3" d="m349.37,688.04l136.13,69.36c59.14-116.02,78.79-246.98,58.95-372.94l-150.86,23.89c14.88,94.46.14,192.67-44.21,279.68Z"/><path class="cls-3" d="m393.58,408.36l150.86-23.89c-19.4-123.13-76.54-241.47-171.42-336.35l-107.98,107.98c71.16,71.16,113.99,159.92,128.54,252.27Z"/><path class="cls-3" d="m298.27,298.05l119.08-60.68C367.92,140.15,288.37,57.12,183.75,3.82l-60.66,119.05c78.46,39.98,138.1,102.26,175.18,175.18Z"/><path class="cls-3" d="m298.27,662.01c-19.63,38.53-44.66,72.5-73.66,101.52l94.53,94.53c38.67-38.68,72.01-84.01,98.19-135.38,26.17-51.37,43.25-104.99,51.81-159.01l-132.04-20.91c-6.43,40.52-19.2,80.73-38.83,119.26Z"/><path class="cls-3" d="m3.82,875.94l20.91,132c110.18-17.54,213.86-69.31,294.41-149.89l-94.53-94.53c-60.42,60.44-138.16,99.26-220.79,112.41Z"/><path class="cls-3" d="m47.3,806.85l35.41,108.98c92.89-30.16,172.77-89.2,229.04-166.52l-92.68-67.33c-42.2,57.99-102.1,102.26-171.77,124.88Z"/><path class="cls-3" d="m284.69,480.03h114.53c0-100.64-32.45-193.7-87.47-269.29l-92.68,67.33c41.26,56.69,65.62,126.47,65.62,201.95Z"/><path class="cls-6" d="m30.91,1012.45c2.98-2.98,2.98-7.82,0-10.8-2.98-2.98-7.82-2.98-10.8,0-2.98,2.98-2.98,7.82,0,10.8s7.82,2.98,10.8,0Z"/><path class="cls-5" d="m151.83,890.98c1.49-1.49,1.49-3.91,0-5.4-1.49-1.49-3.91-1.49-5.4,0s-1.49,3.91,0,5.4c1.49,1.49,3.91,1.49,5.4,0Z"/><path class="cls-5" d="m6.52,878.64c1.49-1.49,1.49-3.91,0-5.4-1.49-1.49-3.91-1.49-5.4,0s-1.49,3.91,0,5.4,3.91,1.49,5.4,0Z"/><circle class="cls-7" cx="82.71" cy="915.83" r="11.45"/><path class="cls-7" d="m52.7,812.25c2.98-2.98,2.98-7.82,0-10.8-2.98-2.98-7.82-2.98-10.8,0-2.98,2.98-2.98,7.82,0,10.8s7.82,2.98,10.8,0Z"/><path class="cls-1" d="m73.92,871.98c5.96-5.96,5.96-15.63,0-21.6-5.96-5.96-15.63-5.96-21.6,0s-5.96,15.63,0,21.6c5.96,5.96,15.63,5.96,21.6,0Z"/><path class="cls-5" d="m275.84,726.21c5.96-5.96,5.96-15.63,0-21.6-5.96-5.96-15.63-5.96-21.6,0s-5.96,15.63,0,21.6c5.96,5.96,15.63,5.96,21.6,0Z"/><path class="cls-7" d="m224.47,687.38c2.98-2.98,2.98-7.82,0-10.8-2.98-2.98-7.82-2.98-10.8,0s-2.98,7.82,0,10.8c2.98,2.98,7.82,2.98,10.8,0Z"/><path class="cls-7" d="m317.15,754.71c2.98-2.98,2.98-7.82,0-10.8-2.98-2.98-7.82-2.98-10.8,0s-2.98,7.82,0,10.8c2.98,2.98,7.82,2.98,10.8,0Z"/><circle class="cls-7" cx="266.12" cy="802.88" r="19.09"/><path class="cls-1" d="m327.23,866.15c4.47-4.47,4.47-11.72,0-16.2-4.47-4.47-11.72-4.47-16.2,0-4.47,4.47-4.47,11.73,0,16.2,4.47,4.47,11.73,4.47,16.2,0Z"/><path class="cls-5" d="m227.31,766.22c1.49-1.49,1.49-3.91,0-5.4-1.49-1.49-3.91-1.49-5.4,0s-1.49,3.91,0,5.4,3.91,1.49,5.4,0Z"/><path class="cls-5" d="m300.97,300.74c1.49-1.49,1.49-3.91,0-5.4-1.49-1.49-3.91-1.49-5.4,0-1.49,1.49-1.49,3.91,0,5.4,1.49,1.49,3.91,1.49,5.4,0Z"/><circle class="cls-5" cx="417.35" cy="237.37" r="19.09"/><path class="cls-5" d="m379.56,52.73c2.98-2.98,2.98-7.82,0-10.8-2.98-2.98-7.82-2.98-10.8,0-2.98,2.98-2.98,7.82,0,10.8,2.98,2.98,7.82,2.98,10.8,0Z"/><path class="cls-5" d="m549.84,389.87c2.98-2.98,2.98-7.82,0-10.8-2.98-2.98-7.82-2.98-10.8,0-2.98,2.98-2.98,7.82,0,10.8s7.82,2.98,10.8,0Z"/><circle class="cls-5" cx="485.5" cy="757.4" r="19.09"/><circle class="cls-1" cx="349.37" cy="688.04" r="11.45"/><path class="cls-5" d="m471.84,566.35c1.49-1.49,1.49-3.91,0-5.4-1.49-1.49-3.91-1.49-5.4,0-1.49,1.49-1.49,3.91,0,5.4s3.91,1.49,5.4,0Z"/><path class="cls-5" d="m342.5,548.14c2.98-2.98,2.98-7.82,0-10.8-2.98-2.98-7.82-2.98-10.8,0-2.98,2.98-2.98,7.82,0,10.8,2.98,2.98,7.82,2.98,10.8,0Z"/><path class="cls-2" d="m401.68,416.46c4.47-4.47,4.47-11.72,0-16.2-4.47-4.47-11.72-4.47-16.2,0-4.47,4.47-4.47,11.72,0,16.2s11.72,4.47,16.2,0Z"/><path class="cls-5" d="m287.39,482.72c1.49-1.49,1.49-3.91,0-5.4-1.49-1.49-3.91-1.49-5.4,0s-1.49,3.91,0,5.4,3.91,1.49,5.4,0Z"/><circle class="cls-7" cx="399.22" cy="480.03" r="15.27"/><path class="cls-1" d="m317.15,216.14c2.98-2.98,2.98-7.82,0-10.8s-7.82-2.98-10.8,0c-2.98,2.98-2.98,7.82,0,10.8,2.98,2.98,7.82,2.98,10.8,0Z"/><circle class="cls-7" cx="265.04" cy="156.09" r="19.09"/><path class="cls-5" d="m320.65,105.88c1.49-1.49,1.49-3.91,0-5.4-1.49-1.49-3.91-1.49-5.4,0-1.49,1.49-1.49,3.91,0,5.4,1.49,1.49,3.91,1.49,5.4,0Z"/><path class="cls-5" d="m186.45,6.52c1.49-1.49,1.49-3.91,0-5.4-1.49-1.49-3.91-1.49-5.4,0-1.49,1.49-1.49,3.91,0,5.4,1.49,1.49,3.91,1.49,5.4,0Z"/><path class="cls-5" d="m128.49,128.27c2.98-2.98,2.98-7.82,0-10.8-2.98-2.98-7.82-2.98-10.8,0s-2.98,7.82,0,10.8c2.98,2.98,7.82,2.98,10.8,0Z"/></svg>