<?xml version="1.0" encoding="UTF-8"?><svg id="Layer_2" xmlns="http://www.w3.org/2000/svg" viewBox="0 0 449.86 440.49"><defs><style>.cls-1,.cls-2,.cls-3,.cls-4{stroke:#fff;}.cls-1,.cls-4{fill:none;stroke-linejoin:round;stroke-width:3px;}.cls-5,.cls-2,.cls-3{fill:#fff;}.cls-2{stroke-width:.25px;}.cls-2,.cls-3{stroke-miterlimit:10;}.cls-6{fill:#0061c9;}.cls-3{stroke-width:.5px;}.cls-7{fill:#d54309;}.cls-8{fill:#c4c5c6;}.cls-4{stroke-linecap:round;}</style></defs><polygon class="cls-8" points="442.48 240.14 294.78 200.38 412.74 186.48 412.68 186.02 294.96 199.89 358.91 170.11 358.72 169.69 294.67 199.51 397.4 98.31 397.07 97.98 295.66 197.88 432.4 17.09 432.03 16.81 293.98 199.33 327.93 32.23 327.47 32.14 293.72 198.31 289.83 83.62 289.37 83.63 293.26 198.56 241.69 32.12 241.25 32.26 293.1 199.63 160.68 92.62 160.39 92.98 292.41 199.66 62.8 123.5 62.65 123.95 290.93 199.66 173.37 182.15 173.3 182.61 291.85 200.27 118.18 222.15 118.24 222.61 292.52 200.65 67.16 339.35 67.4 339.75 291.81 201.63 149.35 338.02 149.67 338.35 292.8 201.33 215.14 365.5 215.56 365.69 293.14 201.7 266.3 417.65 266.76 417.71 293.5 202.61 300.3 290.98 300.76 290.95 293.93 202.1 369.71 423.95 370.15 423.8 294.26 201.63 387.58 327.86 387.96 327.58 294.28 200.88 358.72 230.49 358.91 230.07 296.16 201.23 442.36 240.59 442.48 240.14"/><g><path class="cls-8" d="m377.49,200.29c0-46.28-37.66-83.94-83.94-83.94s-83.94,37.65-83.94,83.94,37.66,83.94,83.94,83.94,83.94-37.65,83.94-83.94Zm-83.94,83.47c-46.03,0-83.47-37.45-83.47-83.47s37.45-83.47,83.47-83.47,83.47,37.45,83.47,83.47-37.45,83.47-83.47,83.47Z"/><path class="cls-8" d="m362.57,107.01l.18.13c3.97,2.96,7.81,6.21,11.4,9.68l.16.16,26.96-25.98.17-.17-.17-.17c-5.34-5.24-11.1-10.14-17.14-14.55l-.19-.14-21.24,30.85-.13.18Zm21.48-30.38c5.88,4.31,11.51,9.09,16.73,14.2l-26.47,25.5c-3.5-3.37-7.24-6.54-11.1-9.43l20.84-30.27Z"/><path class="cls-8" d="m355.87,102.4l.19.12,21.37-31.04-.2-.13c-15.04-9.78-31.49-16.78-48.89-20.81l-.23-.05-7.48,36.72-.04.22.22.05c12.46,3,24.26,8.02,35.07,14.92Zm-27.41-51.35c17.18,4,33.43,10.92,48.31,20.56l-20.84,30.27c-10.75-6.83-22.45-11.81-34.81-14.81l7.34-36.03Z"/><path class="cls-8" d="m312.61,85.83l.22.04,7.48-36.7.05-.23-.24-.04c-7.36-1.28-14.89-2.04-22.38-2.24h-.24s0,37.68,0,37.68h.22c4.99.18,9.99.68,14.88,1.49Zm-14.64-38.7c7.3.21,14.65.94,21.83,2.18l-7.34,36.03c-4.76-.78-9.64-1.26-14.49-1.45v-36.76Z"/><path class="cls-8" d="m219.36,111.08c9.87-8.22,20.93-14.69,32.9-19.25l.21-.08-12.06-35.46-.08-.23-.22.08c-16.73,6.21-32.16,15.24-45.86,26.84l-.18.15,25.12,28.08.17-.14Zm20.68-54.42l11.84,34.81c-11.86,4.54-22.84,10.97-32.65,19.1l-24.5-27.39c13.55-11.44,28.79-20.36,45.31-26.52Z"/><path class="cls-8" d="m190.36,147.21c2.26-4.39,4.85-8.71,7.7-12.82l.13-.18-30.23-22.51-.14.2c-4.31,6.11-8.2,12.6-11.57,19.28l-.11.21,34.11,16.02.1-.2Zm-33.59-16.04c3.3-6.52,7.1-12.85,11.29-18.82l29.49,21.96c-2.76,4.01-5.29,8.21-7.5,12.49l-33.28-15.63Z"/><path class="cls-8" d="m384.2,272.71l-.14.18c-3.12,3.89-6.52,7.6-10.09,11.04l-.16.16,24.96,27.91.16.18.17-.16c5.45-5.15,10.55-10.73,15.18-16.59l.15-.19-30.05-22.38-.18-.13Zm14.76,38.79l-24.51-27.4c3.47-3.35,6.78-6.97,9.83-10.75l29.49,21.96c-4.52,5.71-9.5,11.16-14.81,16.19Z"/><path class="cls-8" d="m379.94,122.84c3.32,3.7,6.43,7.65,9.25,11.75l.13.18,31.62-20.08.2-.13-.13-.2c-4.18-6.18-8.86-12.13-13.91-17.66l-.16-.18-27.14,26.15.15.17Zm26.97-25.65c4.93,5.41,9.49,11.21,13.58,17.24l-31.04,19.71c-2.76-3.99-5.79-7.84-9.01-11.44l26.47-25.51Z"/><path class="cls-8" d="m183.79,237.98l-.07-.21c-4.11-12.04-6.19-24.65-6.19-37.48v-.35s-37.41-1.39-37.41-1.39h-.24s-.01.79-.01.79c0,.31-.01.63-.01.94,0,17.44,2.91,34.57,8.65,50.92l.08.23,34.99-13.37.21-.08Zm-34.92,12.84c-5.67-16.23-8.54-33.23-8.54-50.54,0-.31,0-.62.01-.94v-.33s36.73,1.36,36.73,1.36c.01,12.77,2.08,25.33,6.14,37.32l-34.34,13.12Z"/><path class="cls-8" d="m202.91,127.86l.14-.17c3.12-3.89,6.51-7.6,10.09-11.04l.16-.16-25.12-28.09-.17.16c-5.45,5.15-10.56,10.73-15.18,16.59l-.15.19,30.05,22.38.18.13Zm-14.76-38.79l24.51,27.4c-3.48,3.36-6.78,6.97-9.83,10.75l-29.49-21.96c4.52-5.71,9.5-11.15,14.81-16.19Z"/><path class="cls-8" d="m327.15,311.37l-.22.06c-9.45,2.83-19.28,4.45-29.21,4.8h-.22v37.7h.24c14.07-.38,27.97-2.67,41.32-6.8l.23-.07-12.07-35.48-.07-.21Zm-29.18,42.09v-36.76c9.82-.37,19.54-1.96,28.88-4.75l11.84,34.82c-13.16,4.05-26.86,6.3-40.73,6.7Z"/><path class="cls-8" d="m396.85,253.17l-.1.2c-2.26,4.39-4.85,8.71-7.7,12.82l-.13.19,30.23,22.51.14-.2c4.31-6.12,8.2-12.61,11.57-19.28l.11-.21-33.91-15.93-.2-.1Zm33.48,16.24c-3.3,6.51-7.09,12.84-11.29,18.82l-29.49-21.96c2.76-4.01,5.29-8.21,7.5-12.49l33.27,15.63Z"/><path class="cls-8" d="m438.6,149.37l-.08-.23-34.99,13.37-.21.08.07.21c4.11,12.04,6.19,24.65,6.19,37.54v.29s37.41,1.39,37.41,1.39h.24s.01-.84.01-.84c0-.3,0-.6,0-.9,0-17.44-2.91-34.57-8.65-50.92Zm8.17,51.81v.38s-36.73-1.36-36.73-1.36c-.01-12.77-2.08-25.33-6.14-37.32l34.34-13.12c5.67,16.23,8.54,33.23,8.54,50.54,0,.3,0,.59,0,.89Z"/><path class="cls-8" d="m409.27,208.76c-.92,12.82-3.94,25.28-8.96,37.05l-.09.21,33.89,15.92.22.1.1-.22c7.15-16.36,11.36-33.74,12.5-51.64l.02-.24-37.65-1.4-.02.22Zm37.17,1.62c-1.15,17.69-5.3,34.85-12.35,51.03l-33.27-15.63c4.96-11.68,7.95-24.05,8.9-36.76l36.73,1.36Z"/><path class="cls-8" d="m207.31,277.9l-.15-.17c-3.32-3.7-6.43-7.65-9.25-11.75l-.13-.18-31.62,20.08-.2.13.13.2c4.18,6.19,8.86,12.13,13.91,17.67l.16.18,26.98-25.99.16-.16Zm-27.12,25.48c-4.92-5.41-9.49-11.21-13.58-17.24l31.04-19.72c2.76,3.99,5.79,7.84,9.01,11.45l-26.47,25.51Z"/><path class="cls-8" d="m274.5,314.75l-.22-.04-7.48,36.7-.05.23.24.04c7.37,1.28,14.9,2.04,22.38,2.24h.24s0-37.68,0-37.68h-.22c-4.98-.18-9.99-.68-14.88-1.49Zm14.64,38.71c-7.3-.21-14.64-.94-21.83-2.18l7.34-36.03c4.77.78,9.64,1.26,14.49,1.45v36.76Z"/><path class="cls-8" d="m224.54,293.56l-.18-.13c-3.97-2.95-7.8-6.21-11.4-9.68l-.16-.16-27.13,26.15.17.17c5.33,5.24,11.1,10.14,17.14,14.55l.19.14,21.24-30.85.13-.18Zm-21.48,30.38c-5.89-4.32-11.51-9.09-16.73-14.2l26.47-25.5c3.5,3.37,7.24,6.54,11.1,9.43l-20.84,30.27Z"/><path class="cls-8" d="m231.23,298.17l-.19-.12-21.23,30.84-.14.2.2.13c15.04,9.78,31.49,16.78,48.89,20.81l.23.05,7.48-36.72.04-.22-.22-.05c-12.46-3-24.26-8.02-35.07-14.92Zm27.41,51.35c-17.18-4-33.43-10.92-48.31-20.56l20.84-30.27c10.74,6.83,22.45,11.8,34.81,14.8l-7.34,36.03Z"/><path class="cls-8" d="m384.11,168.57c-1.04-2.96-2.23-5.9-3.56-8.75l-.42.2c1.32,2.83,2.51,5.76,3.54,8.7l.44-.15Z"/><path class="cls-8" d="m355.22,127.42c2.38,2.02,4.69,4.18,6.86,6.42l.33-.32c-2.18-2.25-4.5-4.42-6.9-6.45l-.3.36Z"/><path class="cls-8" d="m310.05,294.8c3.09-.54,6.19-1.23,9.21-2.07l-.12-.45c-3.01.83-6.09,1.53-9.17,2.06l.08.46Z"/><path class="cls-8" d="m386.75,179.57c.67,3.04,1.2,6.16,1.57,9.26l.46-.06c-.37-3.12-.91-6.25-1.58-9.31l-.45.1Z"/><path class="cls-8" d="m389.47,200.29v-.21h-.47v.21c0,3.13-.15,6.29-.46,9.38l.46.05c.3-3.11.46-6.28.46-9.43Z"/><path class="cls-8" d="m376.25,248.92c1.59-2.7,3.07-5.52,4.39-8.36l-.42-.2c-1.31,2.83-2.78,5.63-4.37,8.32l.4.24Z"/><path class="cls-8" d="m278.16,294.51c-3.08-.5-6.17-1.16-9.19-1.96l-.12.45c3.03.81,6.14,1.47,9.23,1.97l.07-.46Z"/><path class="cls-8" d="m200.08,221.92c.7,3.06,1.57,6.11,2.57,9.08l.44-.15c-1-2.95-1.86-5.99-2.56-9.04l-.45.11Z"/><path class="cls-8" d="m197.64,201.33c.03,3.15.22,6.32.56,9.42l.46-.05c-.34-3.09-.52-6.25-.56-9.38h-.47Z"/><path class="cls-8" d="m346.2,120.65l.26-.39c-2.62-1.73-5.35-3.36-8.12-4.82l-.22.41c2.76,1.46,5.47,3.07,8.08,4.8Z"/><path class="cls-8" d="m347.92,278.76l.27.38c2.58-1.79,5.1-3.73,7.48-5.76l-.3-.35c-2.38,2.02-4.88,3.95-7.45,5.73Z"/><path class="cls-8" d="m218.17,258.86l-.37.29c1.92,2.47,4,4.88,6.16,7.16l.34-.32c-2.15-2.27-4.21-4.66-6.13-7.12Z"/><path class="cls-8" d="m363.51,265.23l.34.32c2.14-2.3,4.18-4.73,6.08-7.22l-.37-.28c-1.89,2.48-3.92,4.9-6.05,7.19Z"/><path class="cls-8" d="m266.97,108.58l-.13-.45c-3.01.87-6.02,1.91-8.93,3.07l.17.43c2.9-1.16,5.89-2.19,8.88-3.06Z"/><path class="cls-8" d="m287.3,105.03l-.03-.46c-3.14.2-6.29.56-9.38,1.07l.07.46c3.07-.5,6.21-.86,9.33-1.07Z"/><path class="cls-8" d="m249.72,285.11l-.21.41c2.79,1.45,5.68,2.76,8.59,3.92l.17-.43c-2.89-1.15-5.77-2.47-8.55-3.9Z"/><path class="cls-8" d="m223.83,134.41l.34.32c2.14-2.27,4.42-4.45,6.78-6.5l-.31-.35c-2.37,2.06-4.66,4.26-6.81,6.54Z"/><path class="cls-8" d="m206.04,160.96c-1.29,2.86-2.45,5.82-3.44,8.79l.44.15c.99-2.96,2.14-5.9,3.43-8.75l-.42-.19Z"/></g><circle class="cls-6" cx="212.62" cy="365.34" r="52.08"/><g><path class="cls-6" d="m208.05,92.52c0,15.21-8.33,26.19-10.51,28.78-1.08,1.28-14.16,16.27-34.13,15.86-21.3-.44-44.64-18.28-44.64-44.64,0-24.66,19.99-44.64,44.64-44.64s44.64,19.99,44.64,44.64Z"/><g><path class="cls-5" d="m140.17,82.84c.03.38.36.68.75.65.38-.03.68-.36.65-.75,0-.13-.01-.26-.01-.4,0-2.48,1.56-4.67,2.38-5.65.82.97,2.37,3.16,2.37,5.65,0,.15,0,.3-.02.45-.03.38.26.72.65.75.02,0,.03,0,.05,0,.36,0,.67-.28.7-.65.01-.18.02-.36.02-.55,0-3.41-2.35-6.19-3.07-6.97v-6.24c0-.39-.31-.7-.7-.7s-.7.31-.7.7v6.24c-.73.78-3.07,3.57-3.07,6.97,0,.17,0,.33.02.49Z"/><path class="cls-5" d="m136.25,96.31c.37-.12.56-.52.44-.88-.45-1.36-.54-2.7-.54-3.5,1.25.22,3.86.9,5.45,2.8,1.1,1.32,1.53,3,1.7,4.18.05.35.35.6.69.6.03,0,.06,0,.1,0,.38-.05.65-.41.6-.79-.27-1.96-.97-3.65-2.01-4.89-2.53-3.02-6.95-3.38-7.14-3.4-.38-.03-.71.25-.75.63,0,.1-.23,2.4.58,4.81.12.37.52.56.88.44Z"/><path class="cls-5" d="m145.87,93.9c-.22.26-.42.53-.6.82-.21.32-.11.76.21.97.32.21.76.11.97-.21.15-.24.32-.47.5-.68,1.6-1.9,4.2-2.58,5.45-2.8,0,.77-.08,2.07-.5,3.4-.12.37.09.76.45.88.07.02.14.03.21.03.3,0,.57-.19.67-.49.76-2.37.55-4.6.54-4.69-.04-.38-.37-.65-.75-.63-.19.01-4.6.38-7.14,3.4Z"/><path class="cls-5" d="m144.99,86.84c-1.06,1.26-1.73,2.9-2.01,4.89-.05.38.21.73.59.79.03,0,.07,0,.1,0,.34,0,.64-.25.69-.6.17-1.18.59-2.87,1.7-4.18,1.6-1.91,4.17-2.58,5.45-2.8,0,.77-.08,2.05-.49,3.37-.12.37.09.76.46.88.07.02.14.03.21.03.3,0,.57-.19.67-.49.7-2.22.56-4.3.53-4.62v-7.26c0-.39-.31-.7-.7-.7s-.7.31-.7.7v6.68c-1.37.22-4.51.95-6.49,3.31Z"/><path class="cls-5" d="m136.65,89.31c.07,0,.14-.01.21-.03.37-.12.57-.51.46-.88-.41-1.31-.49-2.59-.49-3.36,1.2.21,3.66.84,5.28,2.6.14.15.33.23.52.23.17,0,.34-.06.47-.18.28-.26.3-.7.04-.99-2-2.18-5.02-2.87-6.28-3.07v-6.78c0-.39-.31-.7-.7-.7s-.7.31-.7.7v7.36c-.03.31-.17,2.4.53,4.61.09.3.37.49.67.49Z"/><path class="cls-5" d="m143.29,115.92c0,.39.31.7.7.7s.7-.31.7-.7v-7.15c1.26-.2,4.74-.92,6.91-3.09,2.79-2.79,2.76-7.22,2.76-7.41,0-.38-.31-.68-.69-.69-.19,0-4.62-.03-7.41,2.76-1.16,1.16-1.98,2.74-2.43,4.69-.09.38.15.75.52.84.38.09.75-.15.84-.52.27-1.16.84-2.81,2.05-4.02,1.75-1.75,4.4-2.2,5.67-2.32-.11,1.27-.56,3.92-2.31,5.67-2.13,2.13-5.84,2.67-6.39,2.74-.55-.07-4.27-.61-6.39-2.74-1.76-1.76-2.2-4.41-2.31-5.68,1.27.11,3.91.56,5.67,2.32.35.35.67.76.95,1.2.21.33.64.43.96.22.33-.21.43-.64.22-.96-.33-.53-.72-1.01-1.15-1.44-2.79-2.79-7.22-2.77-7.41-2.76-.38,0-.68.31-.69.69,0,.19-.03,4.62,2.76,7.41,1.94,1.94,4.95,2.73,6.45,3.01v7.23Z"/><path class="cls-5" d="m161.12,112.51c.39,0,.7-.31.7-.7v-5.64h3.02v2.76c0,.39.31.7.7.7s.7-.31.7-.7v-2.76h3.02v4.94h-3.72c-.39,0-.7.31-.7.7s.31.7.7.7h4.42c.39,0,.7-.31.7-.7v-6.34c0-.39-.31-.7-.7-.7h-8.83c-.39,0-.7.31-.7.7v6.34c0,.39.31.7.7.7Z"/><path class="cls-5" d="m161.12,101.77c.39,0,.7-.31.7-.7v-5.64h3.02v2.76c0,.39.31.7.7.7s.7-.31.7-.7v-2.76h3.02v2.76c0,.39.31.7.7.7s.7-.31.7-.7v-2.76h3.02v2.76c0,.39.31.7.7.7s.7-.31.7-.7v-2.76h3.02v2.76c0,.39.31.7.7.7s.7-.31.7-.7v-2.76h3.02v2.76c0,.39.31.7.7.7s.7-.31.7-.7v-2.76h3.02v2.76c0,.39.31.7.7.7s.7-.31.7-.7v-2.76h3.02v4.94h-25.8c-.39,0-.7.31-.7.7s.31.7.7.7h26.5c.39,0,.7-.31.7-.7v-6.34c0-.39-.31-.7-.7-.7h-30.92c-.39,0-.7.31-.7.7v6.34c0,.39.31.7.7.7Z"/><path class="cls-5" d="m161.12,91.02c.39,0,.7-.31.7-.7v-5.64h3.02v2.76c0,.39.31.7.7.7s.7-.31.7-.7v-2.76h3.02v2.76c0,.39.31.7.7.7s.7-.31.7-.7v-2.76h3.02v4.94h-8.13c-.39,0-.7.31-.7.7s.31.7.7.7h8.83c.39,0,.7-.31.7-.7v-6.34c0-.39-.31-.7-.7-.7h-13.25c-.39,0-.7.31-.7.7v6.34c0,.39.31.7.7.7Z"/><path class="cls-5" d="m161.12,80.27c.39,0,.7-.31.7-.7v-5.64h3.02v2.76c0,.39.31.7.7.7s.7-.31.7-.7v-2.76h3.02v2.76c0,.39.31.7.7.7s.7-.31.7-.7v-2.76h3.02v2.76c0,.39.31.7.7.7s.7-.31.7-.7v-2.76h3.02v2.76c0,.39.31.7.7.7s.7-.31.7-.7v-2.76h3.02v4.94h-16.97c-.39,0-.7.31-.7.7s.31.7.7.7h17.67c.39,0,.7-.31.7-.7v-6.34c0-.39-.31-.7-.7-.7h-22.08c-.39,0-.7.31-.7.7v6.34c0,.39.31.7.7.7Z"/></g></g><circle class="cls-6" cx="121.65" cy="227.81" r="42.78"/><ellipse class="cls-6" cx="390.74" cy="325.27" rx="42.72" ry="42.78"/><g><circle class="cls-6" cx="395.84" cy="100.58" r="46.58" transform="translate(207 462.72) rotate(-76.72)"/><g><path class="cls-3" d="m425.24,102.99c.94-6.61-.46-12.9-3.64-16.48-.12-1.48-1.25-2.75-2.78-2.96-.61-.09-1.2.01-1.73.24-.11-.02-.27-.05-.38-.07-.1-.01-1.74-.25-2.55-.36l.13-.92-1.38-.2,1.05-7.37-4.6-.66-1.05,7.37-1.38-.2-1.97,13.81,1.38.2-.39,2.76,4.6.66.39-2.76,1.38.2.26-1.84,2.56.36.06-.46c.1-.73.42-1.34.9-1.69.41-.31.9-.42,1.48-.34,1.63.23,2.31,2.2,2.59,3.82.36,2.06.25,4.42.03,5.95-.68,4.79-2.77,8.94-5.24,10.5l-.09-.09.59-4.3.62.09c.07,0,.13.01.2.01.68,0,1.28-.5,1.38-1.2l.13-.92c.05-.37-.04-.74-.27-1.03-.22-.3-.55-.49-.92-.54l-16.11-2.29c-.76-.11-1.47.42-1.58,1.18l-.13.92c-.05.37.04.74.27,1.03.22.3.55.49.92.54l11.81,1.68-.48,3.35s-.07.04-.1.07c-.4.33-.65.84-.76,1.51l-1.09-.15c.05-.37-.04-.74-.27-1.03-.22-.3-.55-.49-.92-.54l-5.12-.73c-.37-.05-.74.04-1.03.27-.3.22-.49.55-.54.92l-.13.92c-.05.37.04.74.27,1.03.22.3.55.49.92.54l5.12.73c.07,0,.13.01.2.01.3,0,.59-.1.83-.28.3-.22.49-.55.54-.92h0s1.14.16,1.14.16v6.52h-12.09c-.77,0-1.4.63-1.4,1.4v1.86c0,.77.63,1.4,1.4,1.4h24.65c.77,0,1.4-.63,1.4-1.4v-1.86c0-.77-.63-1.4-1.4-1.4h-.66l-3.41-3.49c3.23-2.92,5.61-7.92,6.4-13.52Zm-15.1-27.73l2.76.39-.92,6.45-2.76-.39.92-6.45Zm-.38,22.49l-2.76-.39.26-1.84,2.76.39-.26,1.84Zm1.31-2.63h0s-4.6-.66-4.6-.66h0s-.46-.07-.46-.07l1.7-11.97.46.07h0s4.6.66,4.6.66h0s.46.07.46.07l-1.7,11.97-.46-.07Zm-2.77,18.06c-.04.25-.27.43-.53.4l-5.12-.73c-.12-.02-.23-.08-.31-.18-.07-.1-.11-.22-.09-.35l.13-.92c.02-.12.08-.23.18-.31.08-.06.18-.09.28-.09.02,0,.04,0,.07,0l5.12.73c.25.04.43.27.39.53l-.13.92Zm10.06-28.74c.11,0,.22,0,.33.02,1.27.18,2.15,1.36,1.97,2.63-.18,1.27-1.36,2.16-2.63,1.97-1.27-.18-2.15-1.36-1.97-2.63.16-1.16,1.16-2,2.3-2Zm-18.26,20.57c-.12-.02-.23-.08-.31-.18-.07-.1-.11-.22-.09-.34l.13-.92c.04-.25.27-.44.53-.4l16.11,2.29c.25.04.43.27.39.53l-.13.92c-.04.25-.27.43-.53.39l-3.32-.47-.98-.14h0s-11.81-1.68-11.81-1.68Zm12.79,2.76l1.65.24-.49,3.58-.38-.39c-.27-.27-.65-.47-1.05-.54-.11-.02-.22-.03-.33-.02l.42-2.9.19.03Zm10.48,13.62v1.86c0,.26-.21.47-.47.47h-24.65c-.26,0-.47-.21-.47-.47v-1.86c0-.26.21-.47.47-.47h24.65c.26,0,.47.21.47.47Zm-12.09-1.4v-6.55c0-.82.18-1.43.51-1.71.23-.19.48-.19.66-.16.21.04.41.14.55.28l7.94,8.14h-9.66Zm6.9-4.17l-2.55-2.61c2.66-1.79,4.78-6.03,5.5-11.05.23-1.6.34-4.08-.04-6.25-.61-3.47-2.17-4.4-3.38-4.58-.81-.12-1.56.06-2.17.51-.57.43-.98,1.07-1.17,1.85l-1.66-.24,1.31-9.21c.53.07,1.39.2,1.96.28-.44.47-.75,1.07-.85,1.76-.25,1.78.99,3.43,2.76,3.68.16.02.31.03.46.03,1.4,0,2.65-.91,3.09-2.23,2.62,3.47,3.71,9.12,2.87,15.07-.77,5.4-3.05,10.2-6.14,12.97Z"/><path class="cls-3" d="m369.9,87.45h.47v33.02c0,2.31,1.88,4.19,4.19,4.19s4.19-1.88,4.19-4.19v-33.02h.47v-6.98h-9.3v6.98Zm4.65,36.27c-1.79,0-3.26-1.46-3.26-3.26v-11.16h6.51v11.16c0,1.79-1.46,3.26-3.26,3.26Zm3.26-15.35h-6.51v-20.93h6.51v20.93Zm-4.19-21.86v-5.12h1.86v5.12h-1.86Zm4.65,0h-1.86v-5.12h1.86v5.12Zm-7.44-5.12h1.86v5.12h-1.86v-5.12Z"/><path class="cls-3" d="m382.92,87.45h.47v33.02c0,2.31,1.88,4.19,4.19,4.19s4.19-1.88,4.19-4.19v-33.02h.47v-6.98h-9.3v6.98Zm4.65,36.27c-1.79,0-3.26-1.46-3.26-3.26v-21.39h6.51v21.39c0,1.79-1.46,3.26-3.26,3.26Zm3.26-25.58h-6.51v-10.7h6.51v10.7Zm-4.19-11.63v-5.12h1.86v5.12h-1.86Zm4.65,0h-1.86v-5.12h1.86v5.12Zm-7.44-5.12h1.86v5.12h-1.86v-5.12Z"/></g></g><circle class="cls-7" cx="293.67" cy="201.16" r="52.08"/><circle class="cls-6" cx="62.27" cy="123.11" r="14.88" transform="translate(-61.55 183.94) rotate(-89.33)"/><circle class="cls-6" cx="300.73" cy="291.14" r="14.88"/><circle class="cls-6" cx="289.6" cy="83.62" r="14.88"/><circle class="cls-6" cx="412.71" cy="186.25" r="14.88"/><circle class="cls-6" cx="67.07" cy="339.08" r="18.6"/><circle class="cls-6" cx="369.93" cy="423.88" r="14.88"/><circle class="cls-6" cx="122.11" cy="352.94" r="7.44"/><path class="cls-6" d="m178.9,190.67c-3.56,2.05-8.11.84-10.16-2.72-2.05-3.56-.84-8.11,2.72-10.16,3.56-2.05,8.11-.84,10.16,2.72,2.05,3.56.84,8.11-2.72,10.16Z"/><circle class="cls-6" cx="42.25" cy="268.15" r="7.44"/><circle class="cls-6" cx="50.53" cy="218.68" r="3.72"/><path class="cls-6" d="m225.14,162.95c-1.12,1.72-3.43,2.2-5.15,1.08-1.72-1.12-2.2-3.43-1.08-5.15,1.12-1.72,3.43-2.2,5.15-1.08s2.2,3.43,1.08,5.15Z"/><path class="cls-6" d="m266.13,54.46c-.26,2.04-2.12,3.48-4.16,3.23-2.04-.26-3.48-2.12-3.23-4.16.26-2.04,2.12-3.48,4.16-3.23s3.48,2.12,3.23,4.16Z"/><path class="cls-6" d="m370.41,40.09c-.26,2.04-2.12,3.48-4.16,3.23s-3.48-2.12-3.23-4.16c.26-2.04,2.12-3.48,4.16-3.23,2.04.26,3.48,2.12,3.23,4.16Z"/><path class="cls-6" d="m364.35,232.59c-.26,2.04-2.12,3.48-4.16,3.23-2.04-.26-3.48-2.12-3.23-4.16.26-2.04,2.12-3.48,4.16-3.23,2.04.26,3.48,2.12,3.23,4.16Z"/><path class="cls-6" d="m150.36,341.86c-.26,2.04-2.12,3.48-4.16,3.23-2.04-.26-3.48-2.12-3.23-4.16.26-2.04,2.12-3.48,4.16-3.23s3.48,2.12,3.23,4.16Z"/><path class="cls-6" d="m310.73,407.94c-.13,1.02-1.06,1.74-2.08,1.61-1.02-.13-1.74-1.06-1.61-2.08.13-1.02,1.06-1.74,2.08-1.61,1.02.13,1.74,1.06,1.61,2.08Z"/><path class="cls-6" d="m340.5,295.75c-.2,1.01-1.18,1.66-2.19,1.46-1.01-.2-1.66-1.18-1.46-2.19.2-1.01,1.18-1.66,2.19-1.46,1.01.2,1.66,1.18,1.46,2.19Z"/><path class="cls-6" d="m352.62,246.86c-.2,1.01-1.18,1.66-2.19,1.46-1.01-.2-1.66-1.18-1.46-2.19.2-1.01,1.18-1.66,2.19-1.46,1.01.2,1.66,1.18,1.46,2.19Z"/><path class="cls-6" d="m234.43,233.89c-.2,1.01-1.18,1.66-2.19,1.46-1.01-.2-1.66-1.18-1.46-2.19.2-1.01,1.18-1.66,2.19-1.46,1.01.2,1.66,1.18,1.46,2.19Z"/><path class="cls-6" d="m323.62,382c-.79.66-1.96.55-2.62-.23s-.55-1.96.23-2.62c.79-.66,1.96-.55,2.62.23.66.79.55,1.96-.23,2.62Z"/><circle class="cls-6" cx="366.01" cy="386.99" r="1.86"/><path class="cls-6" d="m404.09,394.37c-.13,1.02-1.06,1.74-2.08,1.61-1.02-.13-1.74-1.06-1.61-2.08.13-1.02,1.06-1.74,2.08-1.61,1.02.13,1.74,1.06,1.61,2.08Z"/><path class="cls-6" d="m231.13,281.22c-.13,1.02-1.06,1.74-2.08,1.61-1.02-.13-1.74-1.06-1.61-2.08.13-1.02,1.06-1.74,2.08-1.61,1.02.13,1.74,1.06,1.61,2.08Z"/><path class="cls-6" d="m102.49,347.34c-.2,1.01-1.18,1.66-2.19,1.46-1.01-.2-1.66-1.18-1.46-2.19.2-1.01,1.18-1.66,2.19-1.46,1.01.2,1.66,1.18,1.46,2.19Z"/><path class="cls-6" d="m121.87,288.6c-.2,1.01-1.18,1.66-2.19,1.46-1.01-.2-1.66-1.18-1.46-2.19.2-1.01,1.18-1.66,2.19-1.46,1.01.2,1.66,1.18,1.46,2.19Z"/><path class="cls-6" d="m3.68,275.64c-.2,1.01-1.18,1.66-2.19,1.46-1.01-.2-1.66-1.18-1.46-2.19.2-1.01,1.18-1.66,2.19-1.46,1.01.2,1.66,1.18,1.46,2.19Z"/><path class="cls-6" d="m36.66,294.22c-.13,1.02-1.06,1.74-2.08,1.61-1.02-.13-1.74-1.06-1.61-2.08.13-1.02,1.06-1.74,2.08-1.61,1.02.13,1.74,1.06,1.61,2.08Z"/><path class="cls-6" d="m93.57,168.52c-.2,1.01-1.18,1.66-2.19,1.46-1.01-.2-1.66-1.18-1.46-2.19.2-1.01,1.18-1.66,2.19-1.46,1.01.2,1.66,1.18,1.46,2.19Z"/><path class="cls-6" d="m111.12,107.93c-.2,1.01-1.18,1.66-2.19,1.46-1.01-.2-1.66-1.18-1.46-2.19.2-1.01,1.18-1.66,2.19-1.46,1.01.2,1.66,1.18,1.46,2.19Z"/><path class="cls-6" d="m18.4,108.31c-.2,1.01-1.18,1.66-2.19,1.46-1.01-.2-1.66-1.18-1.46-2.19.2-1.01,1.18-1.66,2.19-1.46,1.01.2,1.66,1.18,1.46,2.19Z"/><path class="cls-6" d="m33.3,145.01c-.13,1.02-1.06,1.74-2.08,1.61-1.02-.13-1.74-1.06-1.61-2.08.13-1.02,1.06-1.74,2.08-1.61,1.02.13,1.74,1.06,1.61,2.08Z"/><path class="cls-6" d="m126.22,439c-.2,1.01-1.18,1.66-2.19,1.46-1.01-.2-1.66-1.18-1.46-2.19.2-1.01,1.18-1.66,2.19-1.46,1.01.2,1.66,1.18,1.46,2.19Z"/><path class="cls-6" d="m145.61,380.26c-.2,1.01-1.18,1.66-2.19,1.46s-1.66-1.18-1.46-2.19c.2-1.01,1.18-1.66,2.19-1.46,1.01.2,1.66,1.18,1.46,2.19Z"/><path class="cls-6" d="m27.42,367.3c-.2,1.01-1.18,1.66-2.19,1.46-1.01-.2-1.66-1.18-1.46-2.19.2-1.01,1.18-1.66,2.19-1.46,1.01.2,1.66,1.18,1.46,2.19Z"/><path class="cls-6" d="m93.6,378.73c-.13,1.02-1.06,1.74-2.08,1.61-1.02-.13-1.74-1.06-1.61-2.08.13-1.02,1.06-1.74,2.08-1.61,1.02.13,1.74,1.06,1.61,2.08Z"/><path class="cls-6" d="m288.24,60.97c-.2,1.01-1.18,1.66-2.19,1.46-1.01-.2-1.66-1.18-1.46-2.19.2-1.01,1.18-1.66,2.19-1.46,1.01.2,1.66,1.18,1.46,2.19Z"/><path class="cls-6" d="m307.63,2.23c-.2,1.01-1.18,1.66-2.19,1.46-1.01-.2-1.66-1.18-1.46-2.19.2-1.01,1.18-1.66,2.19-1.46,1.01.2,1.66,1.18,1.46,2.19Z"/><path class="cls-6" d="m199.37,2.23c-.2,1.01-1.18,1.66-2.19,1.46-1.01-.2-1.66-1.18-1.46-2.19.2-1.01,1.18-1.66,2.19-1.46,1.01.2,1.66,1.18,1.46,2.19Z"/><path class="cls-6" d="m178.98,33.53c-.13,1.02-1.06,1.74-2.08,1.61-1.02-.13-1.74-1.06-1.61-2.08.13-1.02,1.06-1.74,2.08-1.61,1.02.13,1.74,1.06,1.61,2.08Z"/><path class="cls-6" d="m95.45,75.85c-.2,1.01-1.18,1.66-2.19,1.46-1.01-.2-1.66-1.18-1.46-2.19.2-1.01,1.18-1.66,2.19-1.46,1.01.2,1.66,1.18,1.46,2.19Z"/><path class="cls-6" d="m108.96,33.67c-.2,1.01-1.18,1.66-2.19,1.46-1.01-.2-1.66-1.18-1.46-2.19.2-1.01,1.18-1.66,2.19-1.46,1.01.2,1.66,1.18,1.46,2.19Z"/><path class="cls-6" d="m329.52,32.56c-.2,1.01-1.18,1.66-2.19,1.46-1.01-.2-1.66-1.18-1.46-2.19.2-1.01,1.18-1.66,2.19-1.46,1.01.2,1.66,1.18,1.46,2.19Z"/><path class="cls-6" d="m270.2,419.99c-.26,2.04-2.12,3.48-4.16,3.23-2.04-.26-3.48-2.12-3.23-4.16.26-2.04,2.12-3.48,4.16-3.23s3.48,2.12,3.23,4.16Z"/><path class="cls-6" d="m434.03,369.78c-.26,2.04-2.12,3.48-4.16,3.23-2.04-.26-3.48-2.12-3.23-4.16.26-2.04,2.12-3.48,4.16-3.23,2.04.26,3.48,2.12,3.23,4.16Z"/><circle class="cls-6" cx="24.02" cy="185.99" r="7.44"/><circle class="cls-6" cx="241.47" cy="32.19" r="7.44"/><circle class="cls-6" cx="432.21" cy="16.95" r="7.44"/><circle class="cls-6" cx="360.66" cy="171.75" r="7.44"/><circle class="cls-6" cx="442.42" cy="240.36" r="7.44"/><g><path class="cls-2" d="m301.98,293.73s-.02,0-.03,0c-.19-.01-.36-.14-.42-.33l-1.43-4.78-1.6,3.94c-.14.35-.72.35-.86,0l-1.17-2.86-.49.79c-.08.14-.23.22-.4.22h-3.62c-.26,0-.47-.21-.47-.47s.21-.47.47-.47h3.36l.83-1.35c.09-.15.27-.23.43-.22.18.01.33.13.39.29l1.08,2.65,1.67-4.11c.07-.18.22-.32.45-.29.2,0,.37.14.42.33l1.45,4.85.84-1.88c.07-.17.24-.27.42-.27h5.72c.26,0,.47.21.47.47s-.21.47-.47.47h-5.42l-1.23,2.75c-.08.17-.24.28-.43.28Z"/><g id="favorite"><path class="cls-2" d="m309.49,288.52c-.26,0-.47-.21-.47-.47,0-2.31-1.82-4.12-4.14-4.12-1.27,0-2.58.61-3.41,1.59-.18.21-.53.21-.71,0-.83-.98-2.14-1.59-3.41-1.59-2.32,0-4.14,1.81-4.14,4.12,0,.26-.21.47-.47.47s-.47-.21-.47-.47c0-2.83,2.23-5.05,5.07-5.05,1.39,0,2.76.57,3.77,1.54,1-.97,2.38-1.54,3.77-1.54,2.84,0,5.07,2.22,5.07,5.05,0,.26-.21.47-.47.47Z"/><path class="cls-2" d="m301.12,299.28c-.12,0-.24-.05-.33-.14l-1.17-1.17c-2.58-2.27-4.38-3.9-5.63-5.54-.16-.2-.12-.5.09-.65.21-.15.5-.12.65.09,1.2,1.58,2.97,3.17,5.53,5.43l.87.86.84-.84c2.58-2.28,4.35-3.87,5.55-5.45.16-.2.45-.24.65-.09.2.16.24.45.09.65-1.25,1.64-3.05,3.27-5.65,5.56l-1.15,1.15c-.09.09-.21.14-.33.14Z"/></g></g><g><path class="cls-2" d="m281.41,78.8c-.09,4.96-.22,11.74,8.01,14.6.11.04.23.04.35,0,8.23-2.85,8.1-9.64,8.01-14.6v-.16c-.01-.48-.02-.94-.02-1.38,0-.29-.24-.53-.53-.53-3.03,0-5.34-.87-7.26-2.74-.1-.1-.23-.15-.37-.15s-.27.05-.37.15c-1.92,1.87-4.23,2.74-7.26,2.74-.3,0-.53.24-.53.53,0,.51-.01,1.04-.02,1.54Zm1.07.02v-.2c0-.23.01-.46.01-.68v-.15s.16,0,.16,0c2.77-.12,4.95-.94,6.84-2.59l.11-.09.11.09c1.89,1.65,4.07,2.47,6.84,2.59h.15s0,.16,0,.16c0,.29,0,.58.02.88.1,5.08.21,10.85-7.06,13.49h0s-.06.02-.06.02l-.06-.02c-7.27-2.64-7.16-8.4-7.06-13.49Z"/><path class="cls-2" d="m293.08,81.7c0-.16-.06-.3-.17-.41-.23-.23-.59-.23-.82,0l-3.45,3.45-1.52-1.52c-.11-.11-.26-.17-.41-.17s-.3.06-.41.17c-.11.11-.17.26-.17.41s.06.3.17.41l1.93,1.93c.22.22.6.22.82,0l3.86-3.86c.11-.11.17-.26.17-.41Z"/></g><g><path class="cls-5" d="m410.4,334.6c-.18,0-.35-.06-.5-.18-.34-.27-.39-.77-.11-1.1,1.07-1.32,4.04-3.33,7.67-1.54.39.19.55.67.36,1.06-.19.39-.67.55-1.06.36-3.38-1.67-5.65,1.01-5.75,1.12-.16.19-.38.29-.61.29Z"/><g><path class="cls-5" d="m408.46,328.76c-1.16,0-2.2-1.55-2.23-2.82-.04-1.4-.59-3.44-1.19-4.43-.37-.16-1.72-.68-6.32-2.1-2.81-.87-6.16-.53-9.91.98.44.38.96.85,1.46,1.32.59.57,1.39,1.34,1.07,2.17-.32.81-1.39.83-1.91.84h-.09c-1.6,0-5.34-.92-6.48-1.2-.53.34-1,.64-1.4.91-.39.26-.72.47-.97.63-2.22,1.36-4.67,1.78-6.3,2.06-.39.07-.75.13-1.05.19-.05.01-.09.02-.14.02-.14,0-.27,0-.39,0-.89,0-1.85-.1-2.24-.81-.41-.76.08-1.52.66-2.4.52-.79,1.16-1.78,1.16-2.77,0-2.11.87-4.13,2.36-5.53,1.6-1.5,3.63-2.73,6.04-3.66.56-1.2,2.54-5.06,5.1-5.95.58-.2,1.15-.06,1.54.38.69.76.76,2.46.68,3.83.94-.11,1.87-.17,2.78-.17,9.95,0,15.07,6.5,16.32,8.34,1.14-.19,3.89-.63,5.4-.76,2.05-.18,2.4.79,2.47,1.18.15.85-.61,1.73-1.88,2.18-.29.1-.59.48-.81.99l.79,1.25c.14.22.16.49.06.72-.1.24-.3.41-.55.47l-1.66.38c-.28.36-.88,1.25-1.04,2.34-.19,1.31-1.07,1.42-1.34,1.42Zm-13.01-11.39c1.31,0,2.57.18,3.74.54,6.57,2.02,6.83,2.31,6.97,2.46.02.03.05.05.07.08.81,1.16,1.53,3.66,1.58,5.45.01.41.24.83.45,1.07.32-1.85,1.5-3.16,1.56-3.22.11-.12.25-.2.41-.24l.83-.19-.4-.64c-.14-.21-.16-.47-.08-.69.23-.7.77-1.9,1.9-2.3.28-.1.48-.21.62-.31-.14-.01-.33-.01-.55,0-1.84.16-5.75.83-5.79.83-.32.06-.65-.1-.81-.38-.05-.08-4.86-8.02-15.26-8.02-.87,0-1.77.06-2.67.16-.29.03-.57.07-.85.12-.24.04-.49-.04-.66-.21-.18-.17-.27-.41-.24-.65.18-1.68.07-3.1-.15-3.52-1.86.73-3.67,4.11-4.22,5.37-.09.2-.25.35-.45.42-2.35.87-4.3,2.02-5.82,3.44-1.18,1.1-1.86,2.7-1.86,4.38,0,1.46-.82,2.71-1.42,3.63-.15.23-.34.52-.45.74.18.03.51.05.99.04.31-.06.66-.13,1.05-.19,1.59-.27,3.78-.65,5.74-1.85.24-.15.55-.35.93-.6.48-.31,1.05-.69,1.71-1.1.1-.06.21-.1.33-.12.1-.01.2,0,.3.02.76.2,4.93,1.24,6.41,1.24h.05s.06,0,.09,0c-.08-.09-.18-.19-.3-.3-1.07-1.02-2.33-2.06-2.35-2.07-.21-.17-.32-.44-.28-.71.03-.27.21-.5.45-.62,3.04-1.38,5.88-2.09,8.45-2.09Z"/><g><path class="cls-5" d="m376.21,320.96h-.17c-.44,0-.79-.35-.79-.79s.35-.79.79-.79h.17c.43,0,.79.35.79.79s-.35.79-.79.79Z"/><path class="cls-5" d="m376.12,321.04c-.43,0-.79-.35-.79-.79v-.17c0-.43.35-.79.79-.79s.79.35.79.79v.17c0,.43-.35.79-.79.79Z"/></g><path class="cls-5" d="m371.28,336.56c-.17,0-.34,0-.5-.02-2.39-.21-3.92-1.83-4.22-2.17-.82-.7-1.64-1.2-2.44-1.48-.41-.14-.63-.59-.49-1,.14-.41.59-.63,1-.49,1.01.34,2.02.96,3.01,1.81.03.03.07.06.09.1.01.01,1.26,1.5,3.2,1.66,1.4.11,2.85-.48,4.32-1.75.33-.29.83-.25,1.11.08.29.33.25.83-.08,1.11-1.64,1.43-3.33,2.16-5.01,2.16Z"/><path class="cls-5" d="m388.59,336.56c-.17,0-.34,0-.5-.02-2.39-.21-3.92-1.83-4.22-2.17-1.46-1.26-2.91-1.84-4.3-1.71-1.96.17-3.17,1.64-3.18,1.65-.27.34-.77.39-1.11.11-.34-.27-.39-.77-.11-1.11.07-.08,1.66-2.01,4.27-2.23,1.85-.16,3.7.56,5.51,2.13.03.03.07.06.09.1.01.01,1.26,1.5,3.2,1.66,1.4.11,2.86-.48,4.32-1.75.33-.29.83-.25,1.11.08.29.33.25.83-.08,1.11-1.64,1.43-3.33,2.16-5.01,2.16Z"/><path class="cls-5" d="m405.9,336.56c-.17,0-.34,0-.5-.02-2.39-.21-3.92-1.83-4.22-2.17-1.46-1.26-2.91-1.84-4.3-1.71-1.96.17-3.17,1.64-3.18,1.65-.27.34-.77.39-1.11.11-.34-.27-.39-.77-.11-1.11.07-.08,1.66-2.01,4.27-2.23,1.85-.16,3.7.56,5.51,2.13.03.03.07.06.09.1.01.01,1.26,1.5,3.2,1.66,1.4.11,2.86-.47,4.32-1.75.33-.29.83-.25,1.11.08.29.33.25.83-.08,1.11-1.65,1.43-3.33,2.16-5.01,2.16Z"/><path class="cls-5" d="m367.82,344.42c-1.84,0-3.23-.87-3.94-1.45-.34-.27-.39-.77-.12-1.11.27-.34.77-.39,1.11-.12,1.46,1.17,3.85,2.01,6.93-.67.33-.29.83-.25,1.11.08.29.33.25.83-.08,1.11-1.86,1.62-3.57,2.16-5,2.16Z"/><path class="cls-5" d="m385.13,344.42c-.17,0-.34,0-.5-.02-2.39-.21-3.92-1.83-4.22-2.17-1.46-1.26-2.91-1.83-4.3-1.71-1.96.17-3.17,1.64-3.18,1.66-.27.34-.77.39-1.11.11-.34-.27-.39-.77-.11-1.11.07-.08,1.66-2.01,4.27-2.23,1.85-.16,3.7.56,5.51,2.13.03.03.07.06.09.1.01.01,1.26,1.5,3.2,1.66,1.4.12,2.86-.48,4.32-1.75.33-.29.83-.25,1.11.08.29.33.25.83-.08,1.11-1.64,1.43-3.33,2.16-5.01,2.16Z"/><path class="cls-5" d="m402.44,344.42c-.17,0-.34,0-.5-.02-2.39-.21-3.92-1.83-4.22-2.17-1.46-1.26-2.91-1.83-4.3-1.71-1.96.17-3.17,1.64-3.18,1.66-.27.34-.77.39-1.11.11-.34-.27-.39-.77-.11-1.11.07-.08,1.66-2.01,4.27-2.23,1.85-.16,3.7.56,5.51,2.13.03.03.07.06.09.1.01.01,1.26,1.5,3.2,1.66,1.4.12,2.86-.48,4.32-1.75.33-.29.83-.25,1.11.08.29.33.25.83-.08,1.11-1.64,1.43-3.33,2.16-5.01,2.16Z"/><path class="cls-5" d="m417.1,343.69c-.13,0-.27-.03-.39-.11-.92-.53-1.51-1.16-1.68-1.36-1.45-1.25-2.9-1.83-4.28-1.72-1.94.16-3.19,1.64-3.2,1.66-.28.33-.77.38-1.11.11-.34-.27-.39-.77-.11-1.1.07-.08,1.66-2.01,4.27-2.23,1.85-.16,3.7.56,5.51,2.13.03.03.06.06.09.1,0,0,.48.58,1.3,1.05.38.22.51.7.29,1.08-.15.25-.41.39-.68.39Z"/></g></g><path class="cls-3" d="m416.35,193.3l-2.16-.58s-.1-.02-.15-.02c-.1,0-.19.02-.27.07-.08.04-.15.11-.21.19h0s-2.3,3.56-2.3,3.56l-.99-2.62c-.04-.11-.11-.2-.21-.27-.09-.07-.21-.1-.32-.1h-1.82l-.69-3.73c-.02-.14-.1-.25-.2-.34-.1-.08-.23-.13-.36-.13-.05,0-.1,0-.15.02h0s-1.6.46-1.6.46l-1-4.88,15.92-.06.33,3.82-1.99,1.83h0s-.07.07-.09.11h0s-1.74,2.66-1.74,2.66h0Zm.04.01h0s0,0,0,0h0Zm-11.56-12.78l2.57-1.04c.1-.04.18-.1.24-.19h0s2.5-3.35,2.5-3.35l2.07,3.21h0c.05.08.12.15.21.19.08.04.17.07.27.07.08,0,.16-.02.24-.05l1.61-.76,2.27,2.23c.1.1.23.15.37.16h.29c-.17.12-.35.22-.53.33-.23.13-.44.26-.62.36-.09.05-.17.1-.23.13-.06.04-.11.07-.15.08h0c-.62.33-1.24.64-1.88.92l-.06.03-.07-.03c-.22-.11-.43-.21-.64-.32h0c-.21-.11-.42-.22-.63-.34-.37-.2-.73-.41-1.09-.63-.09-.06-.21-.06-.3-.01-.11.06-.23.11-.34.17-.09.04-.18.09-.28.13l-.28.13-.29.12c-.1.04-.19.08-.28.11h0c-.19.08-.38.15-.58.21-.17.05-.26.23-.21.39.05.17.23.26.39.21h0c.21-.07.42-.14.62-.22h0s0,0,0,0c0,0,0,0,0,0h0c.11-.04.2-.08.3-.12h0s.29-.13.29-.13h0s.29-.13.29-.13h0c.1-.05.19-.09.29-.14.07-.03.13-.06.19-.09.32.19.64.38.97.56h0c.21.12.43.23.65.34.22.11.44.22.65.33l.2.1c.08.04.18.04.27,0l.19-.08c.65-.29,1.3-.6,1.93-.95h0s.11-.06.19-.11c.28-.16.77-.45,1.22-.71.23-.13.44-.26.62-.37.09-.05.17-.1.23-.14.04-.02.07-.04.1-.06l.72.04.46,3.15-15.86.06.92-3.78h0Zm12.38-.16h0,0Zm2.16.74h0,0Zm.83,7.58h0s0,0,0,0h0Zm-1.58,2.3l2-1.84h0c.12-.11.19-.27.19-.43,0-.02,0-.03,0-.05h0s-.35-4.13-.35-4.13h0s0,0,0,0h0s-.52-3.56-.52-3.56c-.02-.13-.08-.25-.18-.34-.09-.09-.22-.14-.36-.15h0l-.78-.04s-.1-.02-.15,0l-1.24-.06-2.28-2.24c-.11-.11-.25-.16-.4-.16-.08,0-.16.02-.24.05h0s-1.6.75-1.6.75l-2.09-3.23c-.05-.08-.13-.15-.21-.19-.08-.04-.17-.07-.27-.07-.08,0-.17.02-.25.06-.08.04-.15.1-.21.17h0s-2.55,3.41-2.55,3.41l-2.58,1.05c-.09.03-.16.09-.22.16-.06.07-.1.15-.12.24h0s-.99,4.07-.99,4.07h0s-.02.08-.02.12h0s0,.01,0,.02c0,.03,0,.06,0,.08,0,0,0,.02,0,.03,0,0,0,0,0,0h0s0,0,0,0l1.09,5.31h0c.03.13.1.25.2.33.1.08.22.13.36.13.05,0,.1,0,.15-.02h0s1.6-.46,1.6-.46l.69,3.71h0c.02.13.09.25.19.33.05.04.11.08.17.1.06.02.13.04.2.04h1.82l1.02,2.69c.02.06.05.11.09.16.06.07.13.12.2.16.08.04.16.05.24.05.09,0,.18-.02.26-.07.08-.04.16-.11.21-.2l2.34-3.63,2.16.58h0s.1.02.15.02c.09,0,.19-.02.27-.07.08-.04.15-.11.21-.19h0s1.76-2.69,1.76-2.69h0Z"/><g><path class="cls-3" d="m220.23,384.72c-.36,0-.66-.29-.66-.66s.29-.66.66-.66.66.29.66.66-.29.66-.66.66Z"/><path class="cls-3" d="m189.31,384.72c-2.49,0-4.99-1.09-6.85-2.99-1.85-1.89-2.87-4.38-2.82-6.85h0c0-1.17.2-2.3.59-3.37.73-2.05,2.22-3.87,4.07-5.02.95-.59,1.99-1.01,3.07-1.25l.64-.14-.14-.64c-.15-.68-.22-1.38-.22-2.08-.05-2.49.99-4.99,2.84-6.88,1.85-1.89,4.34-2.97,6.81-2.97.06,0,.13,0,.19,0h.01c1.18,0,2.34.21,3.44.62l.64.24.21-.65c.32-.97.79-1.89,1.39-2.72,1.76-2.51,4.85-4.06,8.07-4.06,1.52,0,3.01.35,4.29,1.02,1.32.66,2.49,1.61,3.39,2.77l.39.5.51-.37c1.01-.73,2.12-1.29,3.3-1.68,1.22-.4,2.49-.61,3.77-.61,3.11,0,6.19,1.24,8.46,3.4,2.39,2.28,3.71,5.39,3.73,8.76,0,1.65-.33,3.26-.97,4.77l-.29.68.71.21c1,.3,1.95.75,2.82,1.35,1.7,1.17,3.05,2.96,3.71,4.9.35,1.03.53,2.1.53,3.2,0,1.33-.26,2.62-.77,3.84-1.46,3.55-5.14,6.02-8.96,6.02,0,0-.07,0-.11,0h-9.62c-.36,0-.66-.29-.66-.66s.29-.66.66-.66h9.61c2.28,0,4.42-.89,6.04-2.5,1.61-1.62,2.5-3.76,2.5-6.04,0-4.35-3.25-8-7.57-8.49h-.04s-.02,0-.02,0c-.13-.01-.26-.02-.39-.02-.75,0-1.56.21-2.39.62-.09.04-.19.07-.28.07-.23,0-.43-.11-.56-.3-.11-.16-.14-.35-.09-.54.05-.18.17-.33.33-.42.67-.34,1.68-.75,2.72-.75h.43s.18-.36.18-.36c.77-1.51,1.17-3.21,1.17-4.91,0-2.89-1.13-5.61-3.17-7.66-2.05-2.05-4.77-3.18-7.66-3.18-2.39,0-4.65.76-6.55,2.2l-.41.31.21.47c.46,1.06.77,1.96.81,2.05.12.34-.07.72-.41.83-.07.02-.14.04-.21.04-.28,0-.53-.18-.62-.45,0-.01-.48-1.39-1.15-2.78v-.02s-.02-.02-.02-.02c-1.53-2.64-4.36-4.29-7.4-4.29-3.85,0-7.24,2.6-8.25,6.31l-.13.47.41.26c.68.43,1.66,1.09,2.47,1.85.27.25.3.67.08.93-.13.15-.3.23-.5.23-.17,0-.33-.06-.45-.18-1.2-1.13-2.84-2.05-3.03-2.16,0,0-.04-.02-.04-.02h-.01c-1.29-.74-2.74-1.12-4.22-1.12-2.28,0-4.42.89-6.04,2.5-1.61,1.62-2.5,3.76-2.5,6.04,0,.83.12,1.66.37,2.47l.1.32,1.3.46c.35.12.55.49.45.82-.08.3-.4.46-.66.46-.06,0-.12,0-.17-.03l-1.51-.53h-.14c-4.34.42-7.74,4.15-7.74,8.51,0,2.28.89,4.42,2.5,6.04,1.62,1.61,3.76,2.5,6.04,2.5h24.82c.18,0,.35.07.48.21.13.13.19.31.18.49-.02.34-.34.61-.7.61h-24.77c-.07,0-.13,0-.18,0Z"/><path class="cls-3" d="m221.95,379.46c-.25,0-.47-.14-.59-.36-.11-.22-.09-.48.05-.67.17-.2,1.5-1.63,2.86-2.68.02-.01.05-.04.08-.06,1.54-1.16,2.19-1.95,2.19-2.66,0-1.09-.88-1.97-1.97-1.97s-1.97.88-1.97,1.97c0,.36-.29.66-.66.66s-.66-.29-.66-.66c0-1.81,1.47-3.28,3.28-3.28s3.28,1.47,3.28,3.28c0,1.51-1.22,2.36-2.2,3.05-.24.17-1.01.76-1.2.93l-1.26,1.14h4.01c.36,0,.66.29.66.66s-.29.66-.66.66h-5.26Z"/><path class="cls-3" d="m215.38,373.03c-1.81,0-3.28-1.47-3.28-3.28v-5.26c0-1.81,1.47-3.28,3.28-3.28s3.28,1.47,3.28,3.28v5.26c0,1.81-1.47,3.28-3.28,3.28Zm0-10.51c-1.09,0-1.97.88-1.97,1.97v5.26c0,1.09.88,1.97,1.97,1.97s1.97-.88,1.97-1.97v-5.26c0-1.09-.88-1.97-1.97-1.97Z"/><path class="cls-3" d="m204.85,373.03c-2.85,0-4.84-2.43-4.84-5.91s1.99-5.91,4.84-5.91c.64,0,1.44.28,2.32.81.17.1.28.27.3.47.02.2-.04.39-.18.53-.12.12-.28.19-.45.19-.11,0-.22-.03-.32-.09-.67-.4-1.22-.6-1.66-.6-2.43,0-3.52,2.31-3.52,4.6s1.09,4.6,3.52,4.6c.55,0,1.19-.27,1.92-.82.11-.08.23-.12.37-.12.16,0,.32.06.44.17.13.12.2.29.2.47,0,.18-.08.35-.22.47-.49.42-1.48,1.13-2.7,1.13Z"/></g><g><path class="cls-5" d="m145.74,225.96c0-11.91-8.77-21.8-20.19-23.57,0,0,0,0-.01,0-1.19-.18-2.4-.28-3.64-.28-3.66,0-7.17.81-10.44,2.4-.43.21-.61.73-.4,1.17.21.43.73.61,1.17.4,3.03-1.47,6.28-2.22,9.67-2.22.24,0,.47.01.7.02-2.07,1.71-2.78,4.14-2,7.05.05.2.18.37.35.49.58.4,1.4.49,2.27.25.87-.24,1.58-.77,1.89-1.42.1-.08.33-.16.52-.19-.08.17-.23.44-.54.83-.69.87-1.97,1.63-3.17,1.22-.37-.13-.77,0-.99.32-.67.94-.24,2.19.13,3.3.18.53.5,1.5.37,1.72-.27.24-1.69.09-2.29.03-.6-.06-1.16-.12-1.61-.08-.41.03-.74.35-.79.75-.21,1.57.43,4.17,2.13,4.77,1.93.67,4.3-1.49,4.76-1.93.17-.16.33-.39.54-.67.87-1.19,1.49-1.81,2.1-1.48.03.02,3.45,1.55,4.64,1.06.15-.06.28-.16.37-.29.4-.54.51-1.43.67-2.94.17-1.64.43-4.08,1.37-4.42-.02.23-.07.54-.11.78-.15.85-.31,1.81.02,2.66.02.04.03.08.05.11.71,1.26,1.72,1.29,2.45,1.31.32,0,.61.02.92.11-.21.31-.79.78-1.09,1.03-.24.2-.47.39-.67.57-2.83,2.65-6.58,2.98-9.32,3.23-2.1.19-3.76.34-4.03,1.72-.45,2.3,3.25,7.35,3.82,8.03,2.32,2.76,6.04,2.03,8.76,1.51,1.32-.26,2.69-.52,3.23-.24.84.44.97,1.8.66,2.86-.15.54-.38,1.07-.63,1.62-.35.81-.72,1.64-.87,2.58-.12.73-.05,1.52.2,2.22-3.92,3.55-9.12,5.72-14.82,5.72-.66,0-1.31-.03-1.96-.09-.2-2.98-.4-5.96-.6-8.95-.07-.96-.14-2.04-.63-3.04-.56-1.14-1.58-2.02-2.97-2.54-.45-.17-.95.06-1.12.51-.17.45.06.95.51,1.12.67.25,1.56.75,2.02,1.68.34.69.4,1.55.45,2.39.19,2.87.38,5.74.58,8.61-1.77-.3-3.49-.81-5.15-1.54-.44-.2-.96,0-1.15.45-.19.44,0,.96.45,1.15,3.03,1.33,6.25,2,9.58,2,6.33,0,12.09-2.48,16.36-6.52.09-.06.16-.13.22-.21,4.48-4.34,7.27-10.41,7.27-17.12Zm-7.58,5.55c-1.08-.56-2.61-.26-4.37.08-2.55.49-5.43,1.05-7.09-.92-1.38-1.64-3.54-5.38-3.46-6.5.34-.2,1.57-.31,2.49-.39,2.82-.25,7.08-.64,10.35-3.69.17-.16.37-.32.58-.49.96-.78,2.41-1.96,1.58-3.41-.08-.14-.2-.26-.34-.33-.83-.45-1.57-.47-2.11-.49-.6-.02-.74-.02-.94-.37-.13-.4,0-1.1.09-1.67.16-.92.31-1.8-.26-2.41-.22-.24-.65-.51-1.37-.43-2.47.26-2.83,3.58-3.08,6.01-.06.58-.14,1.31-.23,1.75-.82-.14-2.52-.74-2.89-.93-2.08-1.11-3.61.98-4.34,1.99-.13.17-.28.38-.34.44-1.1,1.06-2.41,1.73-2.98,1.54-.47-.16-.89-1.15-.98-2.11.16.01.34.03.51.05,1.51.15,3.21.33,3.93-.83.58-.93.19-2.09-.18-3.22-.1-.31-.28-.82-.35-1.22,1.47.1,3.03-.63,4.1-1.99.34-.43,1.37-1.73.83-2.82-.27-.55-.85-.85-1.59-.84-.82.01-1.82.42-2.16,1.17-.07.16-.37.39-.79.51-.23.06-.42.08-.56.06-.57-2.69.54-4.67,3.3-5.89,10.49,1.72,18.51,10.84,18.51,21.81,0,5.74-2.2,10.97-5.79,14.9,0-.15.01-.3.03-.45.12-.72.43-1.42.75-2.17.26-.59.52-1.19.7-1.84.5-1.71.23-3.97-1.53-4.9Z"/><path class="cls-5" d="m105.82,246.56c-.3,0-.59-.02-.89-.05-3.56-.39-6.51-3.23-7.02-6.77-.4-2.74.64-5.48,2.71-7.26v-21.97c0-2.84,2.31-5.16,5.16-5.16h.09c2.84,0,5.16,2.31,5.16,5.16v21.97c1.79,1.53,2.8,3.72,2.8,6.08,0,4.41-3.59,8-8,8Zm-.04-39.46c-1.88,0-3.41,1.53-3.41,3.41v22.39c0,.27-.13.53-.34.69-1.83,1.4-2.72,3.61-2.39,5.91.4,2.76,2.71,4.98,5.49,5.28.23.03.47.04.7.04,3.45,0,6.26-2.81,6.26-6.26,0-1.96-.9-3.77-2.46-4.97-.22-.17-.34-.42-.34-.69v-22.39c0-1.88-1.53-3.41-3.41-3.41h-.09Z"/><path class="cls-5" d="m105.82,239.43c-.48,0-.87-.39-.87-.87v-27.88c0-.48.39-.87.87-.87s.87.39.87.87v27.88c0,.48-.39.87-.87.87Z"/><path class="cls-5" d="m98.69,212.83h-3.95c-.48,0-.87-.39-.87-.87s.39-.87.87-.87h3.95c.48,0,.87.39.87.87s-.39.87-.87.87Z"/><path class="cls-5" d="m98.69,216.65h-3.95c-.48,0-.87-.39-.87-.87s.39-.87.87-.87h3.95c.48,0,.87.39.87.87s-.39.87-.87.87Z"/><path class="cls-5" d="m98.69,220.47h-3.95c-.48,0-.87-.39-.87-.87s.39-.87.87-.87h3.95c.48,0,.87.39.87.87s-.39.87-.87.87Z"/><path class="cls-5" d="m98.69,224.29h-3.95c-.48,0-.87-.39-.87-.87s.39-.87.87-.87h3.95c.48,0,.87.39.87.87s-.39.87-.87.87Z"/><path class="cls-5" d="m98.69,228.1h-3.95c-.48,0-.87-.39-.87-.87s.39-.87.87-.87h3.95c.48,0,.87.39.87.87s-.39.87-.87.87Z"/><path class="cls-5" d="m98.69,231.92h-3.95c-.48,0-.87-.39-.87-.87s.39-.87.87-.87h3.95c.48,0,.87.39.87.87s-.39.87-.87.87Z"/></g><g id="security"><g id="database"><ellipse class="cls-1" cx="288.09" cy="181.63" rx="23.25" ry="9.3"/><path class="cls-4" d="m264.84,204.88v13.95c0,6.16,10.41,11.16,23.25,11.16,3.31,0,6.45-.33,9.3-.93"/><path class="cls-4" d="m264.84,192.79v13.02c0,6.01,9.91,10.92,22.32,11.15.31,0,.62,0,.93,0"/><line class="cls-4" x1="311.34" y1="189.07" x2="311.34" y2="181.63"/><path class="cls-4" d="m264.84,181.63v11.16c0,6.01,9.91,10.92,22.32,11.15"/></g><path id="_Trazado_" class="cls-4" d="m307.62,194.65s-6.51,3.72-14.88,3.6v12.13c0,4.77,2.15,9.28,5.85,12.28l9.03,7.33,9.03-7.33c3.7-3,5.85-7.51,5.85-12.28v-12.13c-8.37.12-14.88-3.6-14.88-3.6Z"/></g><g><g><g><path class="cls-3" d="m59.16,347.1h-2.68c-.15,0-.27-.12-.27-.27v-14.01c0-.07.03-.14.08-.19l3.86-3.86c.05-.05.12-.08.19-.08h10.98c.15,0,.27.12.27.27v9.3c0,.15-.12.27-.27.27s-.27-.12-.27-.27v-9.03h-10.61l-3.7,3.7v13.63h2.41c.15,0,.27.12.27.27s-.12.27-.27.27Z"/><path class="cls-3" d="m60.33,333.09h-3.86c-.11,0-.21-.06-.25-.16-.04-.1-.02-.21.06-.29l3.86-3.86c.08-.08.19-.1.29-.06.1.04.16.14.16.25v3.86c0,.15-.12.27-.27.27Zm-3.21-.53h2.94v-2.94l-2.94,2.94Z"/></g><g><path class="cls-3" d="m59.62,340.57c-.07,0-.14-.03-.19-.08-.1-.1-.1-.27,0-.38l2.52-2.52c.1-.1.27-.1.38,0l1.71,1.71,3.5-3.5c.1-.1.27-.1.38,0,.1.1.1.27,0,.38l-3.69,3.69c-.1.1-.27.1-.38,0l-1.71-1.71-2.34,2.34c-.05.05-.12.08-.19.08Z"/><path class="cls-3" d="m67.72,337.98c-.15,0-.27-.12-.27-.27v-1.46h-1.46c-.15,0-.27-.12-.27-.27s.12-.27.27-.27h1.73c.15,0,.27.12.27.27v1.73c0,.15-.12.27-.27.27Z"/></g></g><g><g><path class="cls-3" d="m77.67,349.45h-7.5c-.15,0-.27-.12-.27-.27v-3.05c0-.15.12-.27.27-.27h7.5c.15,0,.27.12.27.27v3.05c0,.15-.12.27-.27.27Zm-7.23-.53h6.97v-2.52h-6.97v2.52Z"/><path class="cls-3" d="m77.67,346.4h-7.5c-.15,0-.27-.12-.27-.27v-3.05c0-.15.12-.27.27-.27h7.5c.15,0,.27.12.27.27v3.05c0,.15-.12.27-.27.27Zm-7.23-.53h6.97v-2.52h-6.97v2.52Z"/><path class="cls-3" d="m75.73,343.35h-7.5c-.15,0-.27-.12-.27-.27v-3.05c0-.15.12-.27.27-.27h7.5c.15,0,.27.12.27.27v3.05c0,.15-.12.27-.27.27Zm-7.23-.53h6.97v-2.52h-6.97v2.52Z"/></g><path class="cls-3" d="m68.23,349.45h-7.5c-.15,0-.27-.12-.27-.27v-3.05c0-.15.12-.27.27-.27h7.5c.15,0,.27.12.27.27v3.05c0,.15-.12.27-.27.27Zm-7.23-.53h6.97v-2.52h-6.97v2.52Z"/></g></g><g><path class="cls-2" d="m70.94,121.59c-.73-4.19-4.36-7.23-8.61-7.23-3.22,0-6.12,1.74-7.65,4.51l-.62-2.15c-.06-.2-.26-.31-.46-.26-.2.06-.31.26-.26.46l.89,3.1s0,0,0,0c.01.04.03.07.05.1,0,0,0,0,0,0,.02.03.05.06.08.08,0,0,0,0,0,0,.02.02.05.03.08.04,0,0,.01,0,.02,0,0,0,.01,0,.02,0,.03.01.07.02.1.02,0,0,0,0,0,0,0,0,0,0,0,0,0,0,0,0,0,0,.01,0,.03,0,.04,0l2.83-.38c.2-.03.35-.21.32-.42-.03-.2-.21-.35-.42-.32l-2.16.29c1.36-2.66,4.09-4.35,7.12-4.35,3.9,0,7.21,2.78,7.88,6.61.03.18.19.31.37.31.02,0,.04,0,.06,0,.2-.04.34-.23.3-.43Z"/><path class="cls-2" d="m71.2,129.36l-.89-3.1c-.05-.18-.22-.29-.41-.27l-2.83.38c-.2.03-.35.21-.32.42.03.2.21.35.42.32l2.25-.3c-1.37,2.62-4.1,4.29-7.09,4.29-3.93,0-7.25-2.81-7.89-6.68-.03-.2-.23-.34-.43-.31-.2.03-.34.23-.31.43.7,4.24,4.33,7.31,8.63,7.31,3.14,0,6.01-1.68,7.56-4.35l.59,2.06c.05.16.2.27.36.27.03,0,.07,0,.1-.01.2-.06.31-.26.26-.46Z"/><path class="cls-2" d="m60.96,128.93s-.1,0-.14-.03c-.16-.07-.25-.23-.23-.4l.78-4.92-1.34-.74c-.36-.2-.52-.63-.38-1.01l1.38-3.72c.07-.19.28-.29.47-.22l2.85.96c.1.03.18.11.23.21.04.1.04.21-.01.31l-.92,1.86,1.29.45c.26.09.46.29.55.56.08.26.04.55-.12.77l-4.11,5.78c-.07.1-.19.16-.3.16Zm.66-10.23l-1.26,3.38s0,.08.04.1l1.57.87c.14.08.21.23.19.39l-.57,3.6,3.19-4.48s.02-.09.02-.11c0-.02-.03-.06-.08-.08l-1.69-.59c-.1-.04-.18-.11-.22-.21-.04-.1-.04-.21.01-.31l.92-1.86-2.1-.71Z"/></g></svg>