<?xml version="1.0" encoding="UTF-8"?><svg id="Layer_2" xmlns="http://www.w3.org/2000/svg" viewBox="0 0 78.47 90"><defs><style>.cls-1{stroke:#d54309;stroke-miterlimit:10;stroke-width:2px;}.cls-1,.cls-2{fill:none;}</style></defs><g id="Layer_1-2"><g><path class="cls-2" d="m51.09,55.15v.3c0,2.6-5.31,4.7-11.85,4.7s-11.85-2.1-11.85-4.7v-6.9c.04,1.36,1.54,2.58,3.91,3.42,2.1.75,4.89,1.21,7.95,1.21s5.84-.46,7.94-1.21c2.4-.86,3.91-2.1,3.91-3.49v6.67Z"/><path class="cls-2" d="m51.09,48.18v.31c0,1.38-1.51,2.63-3.91,3.49-2.1.75-4.89,1.21-7.94,1.21s-5.84-.46-7.95-1.21c-2.36-.84-3.86-2.06-3.91-3.42v-6.97c.04,1.36,1.54,2.57,3.91,3.42,2.1.75,4.89,1.21,7.95,1.21s5.84-.46,7.94-1.21c2.4-.86,3.91-2.1,3.91-3.48v6.66Z"/><path class="cls-2" d="m51.09,34.54v6.97c0,1.38-1.51,2.63-3.91,3.48-2.1.75-4.89,1.21-7.94,1.21s-5.84-.46-7.95-1.21c-2.36-.84-3.86-2.06-3.91-3.42v-6.91c.16,2.54,5.41,4.58,11.85,4.58s11.85-2.1,11.85-4.7Z"/><path class="cls-1" d="m27.38,41.51s0,.04,0,.07c.04,1.36,1.54,2.57,3.91,3.42,2.1.75,4.89,1.21,7.95,1.21s5.84-.46,7.94-1.21c2.4-.86,3.91-2.1,3.91-3.48"/><path class="cls-1" d="m27.38,48.48s0,.04,0,.07c.04,1.36,1.54,2.58,3.91,3.42,2.1.75,4.89,1.21,7.95,1.21s5.84-.46,7.94-1.21c2.4-.86,3.91-2.1,3.91-3.49"/><path class="cls-1" d="m51.09,34.54c0,2.59-5.31,4.7-11.85,4.7s-11.69-2.04-11.85-4.58c0-.04,0-.08,0-.12,0-2.59,5.31-4.7,11.86-4.7s11.85,2.1,11.85,4.7Z"/><path class="cls-1" d="m27.38,34.54v20.91c0,2.6,5.31,4.7,11.85,4.7s11.85-2.1,11.85-4.7v-20.91"/><path class="cls-1" d="m33.95,10.33c-.52-.91-.82-1.98-.82-3.11,0-3.44,2.73-6.22,6.11-6.22s6.11,2.78,6.11,6.22c0,1.13-.3,2.2-.82,3.11-1.05,1.86-3.03,3.11-5.29,3.11s-4.24-1.25-5.29-3.11Z"/><path class="cls-1" d="m6.77,32.33c-.93-.05-1.85-.32-2.71-.83-2.92-1.72-3.92-5.52-2.23-8.5,1.69-2.98,5.42-4,8.34-2.28.96.57,1.72,1.36,2.23,2.27,1.05,1.86,1.13,4.23,0,6.22-.06.1-.12.2-.18.3-1.22,1.91-3.33,2.92-5.45,2.81Z"/><path class="cls-1" d="m12.02,67.59c-.48.67-1.11,1.25-1.86,1.69-2.92,1.72-6.66.7-8.34-2.27-1.69-2.98-.69-6.78,2.23-8.5.86-.5,1.79-.77,2.71-.83,2.23-.12,4.44,1,5.63,3.1.06.1.11.21.16.31,1.06,2.15.79,4.66-.54,6.5Z"/><path class="cls-1" d="m44.83,80.3c.33.76.51,1.6.51,2.48,0,3.44-2.73,6.22-6.11,6.22s-6.11-2.78-6.11-6.22c0-.88.18-1.72.51-2.48.94-2.2,3.1-3.74,5.6-3.74h0c2.51,0,4.66,1.54,5.6,3.74Z"/><path class="cls-1" d="m65.91,61.09c.05-.1.1-.21.16-.31,1.19-2.1,3.41-3.23,5.63-3.1.93.05,1.85.32,2.71.83,2.92,1.72,3.92,5.52,2.24,8.5-1.69,2.98-5.42,4-8.35,2.28-.75-.44-1.37-1.02-1.86-1.69-1.33-1.84-1.61-4.35-.54-6.5"/><path class="cls-1" d="m66.07,23c.52-.92,1.27-1.71,2.24-2.27,2.92-1.72,6.66-.7,8.34,2.27,1.69,2.98.69,6.78-2.23,8.5-.86.5-1.79.77-2.71.83-2.12.12-4.23-.89-5.45-2.8-.06-.1-.12-.2-.18-.3-1.13-1.99-1.05-4.36,0-6.22Z"/><polyline class="cls-1" points="39.24 25.32 39.24 13.44 39.24 13.44"/><polyline class="cls-1" points="23.05 35.89 22.92 35.81 12.22 29.52 12.22 29.52 12.06 29.43"/><polyline class="cls-1" points="22.92 55 12.56 61.09 12.06 61.39"/><polyline class="cls-1" points="39.24 64.68 39.24 76.56 39.24 77.37"/><polyline class="cls-1" points="55.55 55 65.91 61.09 65.91 61.09 66.42 61.39"/><polyline class="cls-1" points="55.42 35.89 55.55 35.81 66.25 29.52 66.26 29.52 66.42 29.43"/><polyline class="cls-1" points="33.95 10.33 12.4 23 12.4 23"/><polyline class="cls-1" points="6.77 32.32 6.77 32.33 6.77 57.68 6.77 57.68"/><polyline class="cls-1" points="33.64 80.3 33.63 80.3 12.02 67.59"/><polyline class="cls-1" points="66.45 67.59 44.83 80.3 44.83 80.3"/><polyline class="cls-1" points="71.71 57.68 71.71 57.68 71.71 32.32 71.71 32.32"/><line class="cls-1" x1="66.07" y1="23" x2="44.53" y2="10.33"/></g></g></svg>